<svg width="360" height="128" viewBox="0 0 360 128" fill="none" xmlns="http://www.w3.org/2000/svg">
<mask id="mask0" mask-type="alpha" maskUnits="userSpaceOnUse" x="0" y="0" width="360" height="128">
<rect width="360" height="128" fill="#C4C4C4"/>
</mask>
<g mask="url(#mask0)">
<path d="M195.92 82.7927C195.92 82.7927 225.024 86.2829 222.654 124.268C222.654 124.268 221.299 144.111 219.267 154.269L217.743 160H143.061L141.538 154.243C139.506 144.084 138.151 124.268 138.151 124.268C135.781 86.2829 164.885 82.7927 164.885 82.7927H195.92Z" fill="#60D170" stroke="black" stroke-width="0.7" stroke-miterlimit="10" stroke-linecap="round" stroke-linejoin="round"/>
<path d="M145.533 97.5514C145.057 97.2511 141.693 103.769 141.535 104.151C139.425 109.253 139.27 115.507 141.329 120.652C142.854 124.464 145.788 128.387 149.824 129.701C154.768 131.31 160.441 129.439 163.024 124.837C165.654 120.154 165.014 113.836 163.492 108.907C163.492 108.906 145.545 97.5592 145.533 97.5514Z" stroke="black" stroke-width="0.7" stroke-miterlimit="10" stroke-linecap="round" stroke-linejoin="round"/>
<path opacity="0.5" d="M180.551 1C214.212 1 241.503 28.286 241.503 61.9535C241.503 95.6145 214.212 122.906 180.551 122.906C146.886 122.906 119.598 95.6145 119.598 61.9535C119.596 28.286 146.887 1 180.551 1Z" fill="#60D170"/>
<path d="M168.757 61.1709C168.757 63.734 166.679 65.8115 164.117 65.8115C161.554 65.8115 159.476 63.734 159.476 61.1709C159.476 58.6085 161.554 56.53 164.117 56.53C166.679 56.5303 168.757 58.6088 168.757 61.1709Z" fill="black" stroke="#231815" stroke-width="0.7" stroke-miterlimit="10" stroke-linecap="round" stroke-linejoin="round"/>
<path d="M196.602 65.5352C199.165 65.5352 201.243 63.4575 201.243 60.8946C201.243 58.3317 199.165 56.254 196.602 56.254C194.04 56.254 191.962 58.3317 191.962 60.8946C191.962 63.4575 194.04 65.5352 196.602 65.5352Z" fill="black" stroke="#231815" stroke-width="0.7" stroke-miterlimit="10" stroke-linecap="round" stroke-linejoin="round"/>
<path d="M196.602 74.0672C199.165 74.0672 201.243 71.9895 201.243 69.4266C201.243 66.8637 199.165 64.7861 196.602 64.7861C194.04 64.7861 191.962 66.8637 191.962 69.4266C191.962 71.9895 194.04 74.0672 196.602 74.0672Z" fill="black" stroke="#231815" stroke-width="0.7" stroke-miterlimit="10" stroke-linecap="round" stroke-linejoin="round"/>
<path d="M168.757 68.6881C168.757 71.2512 166.679 73.3297 164.117 73.3297C161.554 73.3297 159.476 71.2512 159.476 68.6881C159.476 66.1247 161.554 64.0468 164.117 64.0468C166.679 64.0468 168.757 66.1247 168.757 68.6881Z" fill="black" stroke="#231815" stroke-width="0.7" stroke-miterlimit="10" stroke-linecap="round" stroke-linejoin="round"/>
<path d="M188.378 28.2294C188.378 28.2294 186.608 22.8002 179.743 22.4612" stroke="#231815" stroke-width="0.7" stroke-miterlimit="10" stroke-linecap="round" stroke-linejoin="round"/>
<path d="M187.26 28.2295C187.26 28.2295 187.005 25.4808 191.306 24.3959" stroke="#231815" stroke-width="0.7" stroke-miterlimit="10" stroke-linecap="round" stroke-linejoin="round"/>
<path d="M162.103 89.2334C161.82 89.2361 161.198 90.506 161.05 90.7183C160.478 91.5398 158.942 92.4141 158.73 93.3725C158.556 94.1611 159.178 94.5404 159.899 94.5404C159.899 94.5404 161.708 95.0324 162.103 93.2055C162.103 93.2055 162.218 95.2447 164.117 95.3853C164.117 95.3853 165.312 95.5268 165.312 94.1201C165.312 94.1201 165.11 93.1564 165.251 92.3119C165.251 92.3119 166.086 94.9633 167.071 94.9633C167.071 94.9633 168.054 95.5268 168.406 94.4012C168.406 94.4012 167.844 93.1358 167.422 91.7999C167.422 91.7999 168.544 93.8384 169.986 94.261C171.645 94.7466 171.09 92.7389 170.35 92.1321C169.217 91.2039 167.935 90.4555 166.93 89.3614C166.931 89.3607 162.256 89.2364 162.103 89.2334Z" fill="black" stroke="#231815" stroke-width="0.7" stroke-miterlimit="10" stroke-linecap="round" stroke-linejoin="round"/>
<path d="M168.757 76.5985C168.757 79.1616 166.679 81.2391 164.117 81.2391C161.554 81.2391 159.476 79.1609 159.476 76.5985C159.476 74.0354 161.554 71.9569 164.117 71.9569C166.679 71.9569 168.757 74.0354 168.757 76.5985Z" fill="black" stroke="#231815" stroke-width="0.7" stroke-miterlimit="10" stroke-linecap="round" stroke-linejoin="round"/>
<path d="M164.17 89.3607C166.734 89.3607 168.811 87.2829 168.811 84.7198C168.811 82.1567 166.734 80.0789 164.17 80.0789C161.607 80.0789 159.53 82.1567 159.53 84.7198C159.53 87.2829 161.607 89.3607 164.17 89.3607Z" fill="black" stroke="#231815" stroke-width="0.7" stroke-miterlimit="10" stroke-linecap="round" stroke-linejoin="round"/>
<path d="M167.422 89.2327C167.422 89.7115 167.034 90.1 166.556 90.1H162.167C161.688 90.1 161.302 89.7119 161.302 89.2327C161.302 88.7553 161.689 88.3672 162.167 88.3672H166.556C167.034 88.3672 167.422 88.7542 167.422 89.2327Z" fill="black"/>
<path d="M196.602 81.978C199.165 81.978 201.243 79.9003 201.243 77.3374C201.243 74.7745 199.165 72.6968 196.602 72.6968C194.04 72.6968 191.962 74.7745 191.962 77.3374C191.962 79.9003 194.04 81.978 196.602 81.978Z" fill="black" stroke="#231815" stroke-width="0.7" stroke-miterlimit="10" stroke-linecap="round" stroke-linejoin="round"/>
<path d="M196.656 90.0996C199.22 90.0996 201.298 88.0216 201.298 85.4584C201.298 82.8951 199.22 80.8171 196.656 80.8171C194.093 80.8171 192.015 82.8951 192.015 85.4584C192.015 88.0216 194.093 90.0996 196.656 90.0996Z" fill="black" stroke="#231815" stroke-width="0.7" stroke-miterlimit="10" stroke-linecap="round" stroke-linejoin="round"/>
<path d="M199.717 89.7955C199.717 90.2737 199.329 90.6614 198.851 90.6614H194.462C193.984 90.6614 193.596 90.2737 193.596 89.7955C193.596 89.3174 193.984 88.9293 194.462 88.9293H198.851C199.329 88.9293 199.717 89.3167 199.717 89.7955Z" fill="black"/>
<path d="M198.996 89.7955C199.281 89.7982 199.903 91.0687 200.051 91.2804C200.622 92.1012 202.159 92.9756 202.371 93.9352C202.544 94.7229 201.923 95.1025 201.202 95.1025C201.202 95.1025 199.394 95.5945 198.996 93.7666C198.996 93.7666 198.883 95.8055 196.984 95.9463C196.984 95.9463 195.788 96.0872 195.788 94.6816C195.788 94.6816 195.99 93.7172 195.849 92.874C195.849 92.874 195.014 95.5261 194.03 95.5261C194.03 95.5261 193.046 96.0882 192.695 94.9626C192.695 94.9626 193.258 93.6979 193.679 92.3606C193.679 92.3606 192.557 94.3995 191.115 94.8218C189.456 95.3084 190.011 93.3013 190.751 92.6945C191.884 91.7656 193.166 91.0173 194.171 89.9235C194.17 89.9225 198.843 89.7985 198.996 89.7955Z" fill="black" stroke="#231815" stroke-width="0.7" stroke-miterlimit="10" stroke-linecap="round" stroke-linejoin="round"/>
<path d="M164.825 83.003C164.825 83.003 163.502 106.273 171.758 126.363" stroke="#231815" stroke-width="0.7" stroke-miterlimit="10" stroke-linecap="round" stroke-linejoin="round"/>
<path d="M194.442 83.7462C194.442 83.7462 195.764 107.016 187.509 127.107" stroke="#231815" stroke-width="0.7" stroke-miterlimit="10" stroke-linecap="round" stroke-linejoin="round"/>
<path d="M190.125 113.812C190.125 114.908 189.237 115.795 188.142 115.795H185.862C184.768 115.795 183.879 114.908 183.879 113.812C183.879 112.717 184.767 111.829 185.862 111.829H188.142C189.237 111.828 190.125 112.716 190.125 113.812Z" fill="#60D170" stroke="black" stroke-width="0.7" stroke-miterlimit="10"/>
<path d="M194.204 127.191C194.204 129.428 192.39 131.243 190.152 131.243H169.593C167.356 131.243 165.541 129.429 165.541 127.191V118.411C165.541 116.174 167.355 114.359 169.593 114.359H190.152C192.39 114.359 194.205 116.174 194.205 118.411L194.204 127.191Z" fill="#60D170" stroke="black" stroke-width="0.7" stroke-miterlimit="10"/>
<path d="M185.361 122.8C185.361 125.831 182.903 128.288 179.873 128.288C176.843 128.288 174.386 125.831 174.386 122.8C174.386 119.771 176.843 117.314 179.873 117.314C182.903 117.314 185.361 119.771 185.361 122.8Z" fill="white" stroke="#231815" stroke-width="0.7" stroke-miterlimit="10" stroke-linecap="round" stroke-linejoin="round"/>
<path d="M169.022 115.584C169.022 116.261 168.474 116.809 167.797 116.809C167.122 116.809 166.574 116.261 166.574 115.584V113.897C166.574 113.221 167.122 112.673 167.797 112.673C168.474 112.673 169.022 113.221 169.022 113.897V115.584Z" fill="#60D170" stroke="black" stroke-width="0.7" stroke-miterlimit="10"/>
<path d="M192.995 115.584C192.995 116.261 192.447 116.809 191.771 116.809C191.095 116.809 190.546 116.261 190.546 115.584V113.897C190.546 113.221 191.095 112.673 191.771 112.673C192.447 112.673 192.995 113.221 192.995 113.897V115.584Z" fill="#60D170" stroke="black" stroke-width="0.7" stroke-miterlimit="10"/>
<path d="M180.798 119.252C180.798 119.252 182.317 119.278 182.824 120.861" stroke="black" stroke-width="0.7" stroke-miterlimit="10" stroke-linecap="round" stroke-linejoin="round"/>
<path d="M183.267 122.317C183.267 122.317 184.09 125.039 180.797 126.115" stroke="black" stroke-width="0.7" stroke-miterlimit="10" stroke-linecap="round" stroke-linejoin="round"/>
<path d="M170.572 120.543C171.219 120.543 171.743 120.019 171.743 119.372C171.743 118.725 171.219 118.201 170.572 118.201C169.926 118.201 169.401 118.725 169.401 119.372C169.401 120.019 169.926 120.543 170.572 120.543Z" stroke="#231815" stroke-width="0.7" stroke-miterlimit="10" stroke-linecap="round" stroke-linejoin="round"/>
<path d="M236.91 55.5744C234.347 52.9145 230.144 52.9063 227.571 55.5578L226.569 56.591C226.358 56.8077 226.015 56.8077 225.805 56.5886L224.807 55.5527C222.242 52.8935 218.041 52.8857 215.467 55.5361C212.896 58.1879 212.887 62.5339 215.45 65.1945L220.288 70.213C220.308 70.2346 220.328 70.258 220.345 70.2834C220.546 70.5851 220.775 70.8733 221.035 71.1425L223.466 73.665C224.203 74.4303 225.183 74.8007 226.155 74.7828C227.128 74.8048 228.109 74.437 228.848 73.6748L231.288 71.1611C231.549 70.8926 236.893 65.2311 236.893 65.2311C239.466 62.5789 239.475 58.2333 236.91 55.5744Z" fill="#60D170" stroke="black" stroke-width="0.7" stroke-miterlimit="10" stroke-linecap="round" stroke-linejoin="round"/>
<path d="M236.91 55.5744C234.347 52.9145 230.144 52.9063 227.571 55.5578L226.569 56.591C226.358 56.8077 226.015 56.8077 225.805 56.5886L224.807 55.5527C222.242 52.8935 218.041 52.8857 215.467 55.5361C212.896 58.1879 212.887 62.5339 215.45 65.1945L220.288 70.213C220.308 70.2346 220.328 70.258 220.345 70.2834C220.546 70.5851 220.775 70.8733 221.035 71.1425L223.466 73.665C224.203 74.4303 225.183 74.8007 226.155 74.7828C227.128 74.8048 228.109 74.437 228.848 73.6748L231.288 71.1611C231.549 70.8926 236.893 65.2311 236.893 65.2311C239.466 62.5789 239.475 58.2333 236.91 55.5744Z" stroke="black" stroke-width="0.7" stroke-miterlimit="10" stroke-linecap="round"/>
<path d="M227.616 58.4734L224.791 55.5527C222.222 52.8969 218.02 52.8969 215.452 55.5527C212.884 58.2076 212.884 62.5529 215.452 65.2084L223.632 73.6677C225.072 75.1552 227.425 75.1552 228.865 73.6677" fill="#60D170"/>
<path d="M227.616 58.4734L224.791 55.5527C222.222 52.8969 218.02 52.8969 215.452 55.5527C212.884 58.2076 212.884 62.5529 215.452 65.2084L223.632 73.6677C225.072 75.1552 227.425 75.1552 228.865 73.6677" stroke="black" stroke-width="0.7" stroke-miterlimit="10" stroke-linecap="round" stroke-linejoin="round"/>
<path d="M227.616 58.4734L224.791 55.5527C222.222 52.8969 218.02 52.8969 215.452 55.5527C212.884 58.2076 212.884 62.5529 215.452 65.2084L223.632 73.6677C225.072 75.1552 227.425 75.1552 228.865 73.6677" stroke="black" stroke-width="0.7" stroke-miterlimit="10" stroke-linecap="round"/>
<path d="M215.209 59.8391C215.342 58.7639 215.806 57.7233 216.599 56.9018C217.316 56.1616 218.201 55.6994 219.132 55.5145" stroke="white" stroke-width="0.7" stroke-miterlimit="10" stroke-linecap="round"/>
<path d="M145.364 55.574C142.8 52.9141 138.598 52.906 136.025 55.5574L135.023 56.5906C134.812 56.8073 134.469 56.8073 134.259 56.5882L133.261 55.5524C130.696 52.8931 126.494 52.8853 123.921 55.5358C121.35 58.1876 121.341 62.5335 123.904 65.1941L128.742 70.2126C128.762 70.2343 128.782 70.2576 128.799 70.283C129 70.5848 129.229 70.8729 129.489 71.1421L131.92 73.6649C132.657 74.4302 133.637 74.8007 134.609 74.7827C135.582 74.8044 136.563 74.437 137.302 73.6748L139.742 71.1611C140.003 70.8926 145.347 65.231 145.347 65.231C147.921 62.5786 147.929 58.2333 145.364 55.574Z" fill="#60D170" stroke="black" stroke-width="0.7" stroke-miterlimit="10" stroke-linecap="round" stroke-linejoin="round"/>
<path d="M145.364 55.574C142.8 52.9141 138.598 52.906 136.025 55.5574L135.023 56.5906C134.812 56.8073 134.469 56.8073 134.259 56.5882L133.261 55.5524C130.696 52.8931 126.494 52.8853 123.921 55.5358C121.35 58.1876 121.341 62.5335 123.904 65.1941L128.742 70.2126C128.762 70.2343 128.782 70.2576 128.799 70.283C129 70.5848 129.229 70.8729 129.489 71.1421L131.92 73.6649C132.657 74.4302 133.637 74.8007 134.609 74.7827C135.582 74.8044 136.563 74.437 137.302 73.6748L139.742 71.1611C140.003 70.8926 145.347 65.231 145.347 65.231C147.921 62.5786 147.929 58.2333 145.364 55.574Z" stroke="black" stroke-width="0.7" stroke-miterlimit="10" stroke-linecap="round"/>
<path d="M136.07 58.4731L133.245 55.5524C130.677 52.8966 126.474 52.8966 123.906 55.5524C121.338 58.2073 121.338 62.5525 123.906 65.2081L132.087 73.6673C133.526 75.1553 135.88 75.1553 137.319 73.6673" fill="#60D170"/>
<path d="M136.07 58.4731L133.245 55.5524C130.677 52.8966 126.474 52.8966 123.906 55.5524C121.338 58.2073 121.338 62.5525 123.906 65.2081L132.087 73.6673C133.526 75.1553 135.88 75.1553 137.319 73.6673" stroke="black" stroke-width="0.7" stroke-miterlimit="10" stroke-linecap="round" stroke-linejoin="round"/>
<path d="M136.07 58.4731L133.245 55.5524C130.677 52.8966 126.474 52.8966 123.906 55.5524C121.338 58.2073 121.338 62.5525 123.906 65.2081L132.087 73.6673C133.526 75.1553 135.88 75.1553 137.319 73.6673" stroke="black" stroke-width="0.7" stroke-miterlimit="10" stroke-linecap="round"/>
<path d="M123.663 59.8387C123.796 58.7636 124.26 57.7229 125.053 56.9014C125.769 56.1612 126.655 55.699 127.586 55.5141" stroke="white" stroke-width="0.7" stroke-miterlimit="10" stroke-linecap="round"/>
<path d="M147.006 26.859C145.587 25.387 143.261 25.3826 141.837 26.8499L141.283 27.4215C141.166 27.5414 140.976 27.5414 140.86 27.4205L140.308 26.8472C138.888 25.3755 136.562 25.3711 135.139 26.838C133.716 28.3053 133.711 30.7109 135.13 32.183L137.807 34.9601C137.818 34.9722 137.829 34.9851 137.839 34.999C137.95 35.1659 138.076 35.3254 138.221 35.4744L139.566 36.8706C139.974 37.2942 140.516 37.4991 141.054 37.4893C141.593 37.5015 142.135 37.2979 142.544 36.8757L143.895 35.4846C144.039 35.3359 146.996 32.2029 146.996 32.2029C148.42 30.7357 148.425 28.3307 147.006 26.859Z" fill="#60D170" stroke="black" stroke-width="0.7" stroke-miterlimit="10" stroke-linecap="round" stroke-linejoin="round"/>
<path d="M147.006 26.859C145.587 25.387 143.261 25.3826 141.837 26.8499L141.283 27.4215C141.166 27.5414 140.976 27.5414 140.86 27.4205L140.308 26.8472C138.888 25.3755 136.562 25.3711 135.139 26.838C133.716 28.3053 133.711 30.7109 135.13 32.183L137.807 34.9601C137.818 34.9722 137.829 34.9851 137.839 34.999C137.95 35.1659 138.076 35.3254 138.221 35.4744L139.566 36.8706C139.974 37.2942 140.516 37.4991 141.054 37.4893C141.593 37.5015 142.135 37.2979 142.544 36.8757L143.895 35.4846C144.039 35.3359 146.996 32.2029 146.996 32.2029C148.42 30.7357 148.425 28.3307 147.006 26.859Z" stroke="black" stroke-width="0.7" stroke-miterlimit="10" stroke-linecap="round"/>
<path d="M141.862 28.4634L140.299 26.8472C138.877 25.3775 136.552 25.3775 135.131 26.8472C133.709 28.3165 133.709 30.7211 135.131 32.1907L139.658 36.8719C140.454 37.6951 141.757 37.6951 142.553 36.8719" fill="#60D170"/>
<path d="M141.862 28.4634L140.299 26.8472C138.877 25.3775 136.552 25.3775 135.131 26.8472C133.709 28.3165 133.709 30.7211 135.131 32.1907L139.658 36.8719C140.454 37.6951 141.757 37.6951 142.553 36.8719" stroke="black" stroke-width="0.7" stroke-miterlimit="10" stroke-linecap="round" stroke-linejoin="round"/>
<path d="M141.862 28.4634L140.299 26.8472C138.877 25.3775 136.552 25.3775 135.131 26.8472C133.709 28.3165 133.709 30.7211 135.131 32.1907L139.658 36.8719C140.454 37.6951 141.757 37.6951 142.553 36.8719" stroke="black" stroke-width="0.7" stroke-miterlimit="10" stroke-linecap="round"/>
<path d="M134.996 29.2193C135.07 28.6243 135.327 28.0483 135.766 27.5938C136.163 27.1844 136.653 26.9284 137.167 26.8262" stroke="white" stroke-width="0.7" stroke-miterlimit="10" stroke-linecap="round"/>
<path d="M129.941 97.6321C128.522 96.1604 126.196 96.156 124.772 97.6233L124.218 98.1949C124.101 98.3148 123.912 98.3148 123.795 98.1935L123.242 97.6202C121.823 96.1485 119.498 96.1448 118.074 97.6111C116.651 99.0787 116.646 101.484 118.065 102.956L120.742 105.733C120.753 105.745 120.764 105.758 120.773 105.772C120.885 105.939 121.012 106.099 121.155 106.247L122.501 107.643C122.909 108.067 123.451 108.271 123.989 108.262C124.528 108.274 125.07 108.071 125.479 107.648L126.83 106.257C126.974 106.109 129.931 102.976 129.931 102.976C131.356 101.509 131.36 99.1038 129.941 97.6321Z" fill="#60D170" stroke="black" stroke-width="0.7" stroke-miterlimit="10" stroke-linecap="round" stroke-linejoin="round"/>
<path d="M129.941 97.6321C128.522 96.1604 126.196 96.156 124.772 97.6233L124.218 98.1949C124.101 98.3148 123.912 98.3148 123.795 98.1935L123.242 97.6202C121.823 96.1485 119.498 96.1448 118.074 97.6111C116.651 99.0787 116.646 101.484 118.065 102.956L120.742 105.733C120.753 105.745 120.764 105.758 120.773 105.772C120.885 105.939 121.012 106.099 121.155 106.247L122.501 107.643C122.909 108.067 123.451 108.271 123.989 108.262C124.528 108.274 125.07 108.071 125.479 107.648L126.83 106.257C126.974 106.109 129.931 102.976 129.931 102.976C131.356 101.509 131.36 99.1038 129.941 97.6321Z" stroke="black" stroke-width="0.7" stroke-miterlimit="10" stroke-linecap="round"/>
<path d="M124.798 99.2368L123.235 97.6209C121.813 96.1512 119.488 96.1512 118.066 97.6209C116.644 99.0905 116.645 101.495 118.066 102.964L122.593 107.646C123.39 108.469 124.692 108.469 125.489 107.646" fill="#60D170"/>
<path d="M124.798 99.2368L123.235 97.6209C121.813 96.1512 119.488 96.1512 118.066 97.6209C116.644 99.0905 116.645 101.495 118.066 102.964L122.593 107.646C123.39 108.469 124.692 108.469 125.489 107.646" stroke="black" stroke-width="0.7" stroke-miterlimit="10" stroke-linecap="round" stroke-linejoin="round"/>
<path d="M124.798 99.2368L123.235 97.6209C121.813 96.1512 119.488 96.1512 118.066 97.6209C116.644 99.0905 116.645 101.495 118.066 102.964L122.593 107.646C123.39 108.469 124.692 108.469 125.489 107.646" stroke="black" stroke-width="0.7" stroke-miterlimit="10" stroke-linecap="round"/>
<path d="M117.932 99.9926C118.005 99.3973 118.262 98.8217 118.701 98.3669C119.098 97.9575 119.588 97.7015 120.103 97.5989" stroke="white" stroke-width="0.7" stroke-miterlimit="10" stroke-linecap="round"/>
<path d="M241.806 98.3073C240.388 96.8356 238.061 96.8312 236.638 98.2985L236.083 98.8701C235.966 98.99 235.777 98.99 235.66 98.8688L235.108 98.2955C233.688 96.8238 231.363 96.8197 229.938 98.2863C228.516 99.7539 228.511 102.16 229.93 103.632L232.607 106.409C232.618 106.421 232.629 106.433 232.638 106.448C232.75 106.614 232.876 106.774 233.021 106.922L234.366 108.318C234.774 108.742 235.316 108.947 235.855 108.937C236.393 108.949 236.936 108.746 237.345 108.323L238.695 106.933C238.839 106.784 241.796 103.651 241.796 103.651C243.221 102.184 243.226 99.779 241.806 98.3073Z" fill="#60D170" stroke="black" stroke-width="0.7" stroke-miterlimit="10" stroke-linecap="round" stroke-linejoin="round"/>
<path d="M241.806 98.3073C240.388 96.8356 238.061 96.8312 236.638 98.2985L236.083 98.8701C235.966 98.99 235.777 98.99 235.66 98.8688L235.108 98.2955C233.688 96.8238 231.363 96.8197 229.938 98.2863C228.516 99.7539 228.511 102.16 229.93 103.632L232.607 106.409C232.618 106.421 232.629 106.433 232.638 106.448C232.75 106.614 232.876 106.774 233.021 106.922L234.366 108.318C234.774 108.742 235.316 108.947 235.855 108.937C236.393 108.949 236.936 108.746 237.345 108.323L238.695 106.933C238.839 106.784 241.796 103.651 241.796 103.651C243.221 102.184 243.226 99.779 241.806 98.3073Z" stroke="black" stroke-width="0.7" stroke-miterlimit="10" stroke-linecap="round"/>
<path d="M236.662 99.9121L235.099 98.2961C233.678 96.8261 231.352 96.8261 229.931 98.2961C228.51 99.7658 228.51 102.17 229.931 103.64L234.458 108.321C235.255 109.144 236.557 109.144 237.353 108.321" fill="#60D170"/>
<path d="M236.662 99.9121L235.099 98.2961C233.678 96.8261 231.352 96.8261 229.931 98.2961C228.51 99.7658 228.51 102.17 229.931 103.64L234.458 108.321C235.255 109.144 236.557 109.144 237.353 108.321" stroke="black" stroke-width="0.7" stroke-miterlimit="10" stroke-linecap="round" stroke-linejoin="round"/>
<path d="M236.662 99.9121L235.099 98.2961C233.678 96.8261 231.352 96.8261 229.931 98.2961C228.51 99.7658 228.51 102.17 229.931 103.64L234.458 108.321C235.255 109.144 236.557 109.144 237.353 108.321" stroke="black" stroke-width="0.7" stroke-miterlimit="10" stroke-linecap="round"/>
<path d="M229.797 100.668C229.87 100.073 230.127 99.4969 230.566 99.0421C230.962 98.6327 231.452 98.3767 231.967 98.2737" stroke="white" stroke-width="0.7" stroke-miterlimit="10" stroke-linecap="round"/>
<path d="M221.149 26.859C219.73 25.387 217.404 25.3826 215.98 26.8499L215.425 27.4215C215.309 27.5414 215.119 27.5414 215.003 27.4205L214.45 26.8472C213.031 25.3755 210.705 25.3711 209.281 26.838C207.859 28.3053 207.853 30.7109 209.272 32.183L211.95 34.9601C211.961 34.9722 211.971 34.9851 211.981 34.999C212.092 35.1659 212.219 35.3254 212.363 35.4744L213.709 36.8706C214.116 37.2942 214.659 37.4991 215.197 37.4893C215.735 37.5015 216.278 37.2979 216.687 36.8757L218.037 35.4846C218.182 35.3359 221.139 32.2029 221.139 32.2029C222.563 30.7357 222.568 28.3307 221.149 26.859Z" fill="#60D170" stroke="black" stroke-width="0.7" stroke-miterlimit="10" stroke-linecap="round" stroke-linejoin="round"/>
<path d="M221.149 26.859C219.73 25.387 217.404 25.3826 215.98 26.8499L215.425 27.4215C215.309 27.5414 215.119 27.5414 215.003 27.4205L214.45 26.8472C213.031 25.3755 210.705 25.3711 209.281 26.838C207.859 28.3053 207.853 30.7109 209.272 32.183L211.95 34.9601C211.961 34.9722 211.971 34.9851 211.981 34.999C212.092 35.1659 212.219 35.3254 212.363 35.4744L213.709 36.8706C214.116 37.2942 214.659 37.4991 215.197 37.4893C215.735 37.5015 216.278 37.2979 216.687 36.8757L218.037 35.4846C218.182 35.3359 221.139 32.2029 221.139 32.2029C222.563 30.7357 222.568 28.3307 221.149 26.859Z" stroke="black" stroke-width="0.7" stroke-miterlimit="10" stroke-linecap="round"/>
<path d="M216.005 28.4634L214.442 26.8472C213.02 25.3775 210.695 25.3775 209.273 26.8472C207.853 28.3165 207.853 30.7211 209.273 32.1907L213.8 36.8719C214.597 37.6951 215.899 37.6951 216.696 36.8719" fill="#60D170"/>
<path d="M216.005 28.4634L214.442 26.8472C213.02 25.3775 210.695 25.3775 209.273 26.8472C207.853 28.3165 207.853 30.7211 209.273 32.1907L213.8 36.8719C214.597 37.6951 215.899 37.6951 216.696 36.8719" stroke="black" stroke-width="0.7" stroke-miterlimit="10" stroke-linecap="round" stroke-linejoin="round"/>
<path d="M216.005 28.4634L214.442 26.8472C213.02 25.3775 210.695 25.3775 209.273 26.8472C207.853 28.3165 207.853 30.7211 209.273 32.1907L213.8 36.8719C214.597 37.6951 215.899 37.6951 216.696 36.8719" stroke="black" stroke-width="0.7" stroke-miterlimit="10" stroke-linecap="round"/>
<path d="M209.139 29.2193C209.212 28.6243 209.47 28.0483 209.908 27.5938C210.304 27.1844 210.795 26.9284 211.31 26.8262" stroke="white" stroke-width="0.7" stroke-miterlimit="10" stroke-linecap="round"/>
<path d="M198.409 47.2827C197.652 47.0484 196.871 47.0196 196.114 47.1594C194.717 37.7195 187.935 30.5494 179.763 30.5494C171.568 30.5494 164.776 37.7578 163.403 47.2346C162.561 47.0331 161.698 47.0196 160.856 47.2868C157.91 48.2072 156.423 51.8508 157.539 55.4352C158.657 59.0141 161.95 61.1719 164.899 60.2512C164.959 60.2349 165.002 60.2014 165.06 60.18C166.495 63.4749 168.664 66.2147 171.292 68.1141C171.381 72.5088 170.514 79.4409 164.66 82.537C164.66 82.537 166.324 89.3488 179.634 89.3488C192.942 89.3488 194.609 82.537 194.609 82.537C188.833 79.4805 187.913 72.6856 187.975 68.28C190.694 66.3929 192.949 63.6269 194.432 60.263C197.363 61.1323 200.619 58.9877 201.73 55.4325C202.845 51.8471 201.358 48.2031 198.409 47.2827Z" fill="white" stroke="#231815" stroke-width="0.7" stroke-miterlimit="10" stroke-linecap="round" stroke-linejoin="round"/>
<path d="M169.405 46.9607C169.405 46.9607 171.545 43.7373 176.705 43.9974" stroke="#221714" stroke-width="0.7" stroke-miterlimit="10" stroke-linecap="round" stroke-linejoin="round"/>
<path d="M182.484 43.997C187.643 43.7373 189.785 46.9604 189.785 46.9604" stroke="#221714" stroke-width="0.7" stroke-miterlimit="10" stroke-linecap="round" stroke-linejoin="round"/>
<path d="M179.9 46.6292V55.0519L181.201 55.7712" stroke="#221714" stroke-width="0.7" stroke-miterlimit="10" stroke-linecap="round" stroke-linejoin="round"/>
<path d="M159.896 53.7932L164.659 54.9831" stroke="#231815" stroke-width="0.7" stroke-miterlimit="10" stroke-linecap="round" stroke-linejoin="round"/>
<path d="M199.366 53.7932L194.604 54.9831" stroke="#231815" stroke-width="0.7" stroke-miterlimit="10" stroke-linecap="round" stroke-linejoin="round"/>
<path d="M171.26 68.0701C171.26 68.0701 177.97 73.0344 187.06 68.3566C187.06 68.3566 182.245 79.6499 169.129 78.1342C169.129 78.1342 171.496 74.8054 171.26 68.0701Z" fill="#040000"/>
<path d="M197.851 47.0609C197.851 47.0609 197.026 48.7195 196.075 49.7107C196.075 49.7107 195.239 36.8686 186.266 34.2056C186.266 34.2056 187.257 38.113 187.257 40.2548H182.89L182.258 34.2056L180.792 40.3646H175.503L176.537 34.2056L172.411 40.4749H169.074V36.8448C169.074 36.8448 164.749 42.6693 164.749 49.711C164.749 49.711 163.24 50.0622 162.849 46.8764L160.108 47.4432C160.108 47.4432 155.977 24.2888 180.074 25.2397C180.074 25.2397 202.4 22.4613 200.356 47.9129L197.851 47.0609Z" fill="black" stroke="#231815" stroke-width="0.7" stroke-miterlimit="10" stroke-linecap="round" stroke-linejoin="round"/>
<path d="M174.193 49.7215C174.193 50.881 174.761 51.8224 175.468 51.8224C176.168 51.8224 176.736 50.8807 176.736 49.7215C176.736 48.5621 176.169 47.622 175.468 47.622C174.761 47.6224 174.193 48.5621 174.193 49.7215Z" fill="#221714"/>
<path d="M174.521 58.7853H186.597C186.597 58.7853 186.021 67.0268 180.079 67.2188C180.079 67.2185 174.138 66.8348 174.521 58.7853Z" stroke="#231815" stroke-width="0.7" stroke-miterlimit="10" stroke-linecap="round" stroke-linejoin="round"/>
<path d="M186.937 47.9404C184.663 47.9404 182.827 50.2627 182.827 50.2627C182.827 50.2627 186.025 50.3463 186.937 51.5044" stroke="#231815" stroke-width="0.7" stroke-miterlimit="10" stroke-linecap="round" stroke-linejoin="round"/>
<path d="M151.794 88.9764L149.439 85.8969C149.439 85.8969 147.52 83.8086 149.439 81.4947C149.439 81.4947 151.753 79.8581 153.841 82.3978L155.363 84.4293" fill="white"/>
<path d="M151.794 88.9764L149.439 85.8969C149.439 85.8969 147.52 83.8086 149.439 81.4947C149.439 81.4947 151.753 79.8581 153.841 82.3978L155.363 84.4293" stroke="black" stroke-width="0.7" stroke-miterlimit="10" stroke-linecap="round" stroke-linejoin="round"/>
<path d="M145.996 96.4038C149.672 91.7365 153.283 87.0035 157.002 82.3738C158.698 80.2634 160.693 77.7417 163.605 79.7792C163.605 79.7792 165.637 80.9742 163.605 84.1411L159.767 89.3827C159.767 89.3827 162.702 88.3231 163.492 92.048C163.492 92.048 166.54 91.9349 167.556 95.0957C167.556 95.0957 172.409 95.2088 170.942 99.7237L161.235 111.688C161.235 111.688 154.002 115.752 148.305 110.447C148.306 110.447 141.481 106.743 145.996 96.4038Z" fill="white" stroke="black" stroke-width="0.7" stroke-miterlimit="10" stroke-linecap="round" stroke-linejoin="round"/>
<path d="M159.767 89.3831L156.381 93.4033" stroke="black" stroke-width="0.7" stroke-miterlimit="10" stroke-linecap="round" stroke-linejoin="round"/>
<path d="M163.492 92.0484L159.767 96.8458" stroke="black" stroke-width="0.7" stroke-miterlimit="10" stroke-linecap="round" stroke-linejoin="round"/>
<path d="M167.556 95.0961L163.944 100.007" stroke="black" stroke-width="0.7" stroke-miterlimit="10" stroke-linecap="round" stroke-linejoin="round"/>
<path d="M214.316 96.8742C214.819 96.5566 218.201 103.222 218.368 103.627C220.538 108.86 220.509 115.266 218.315 120.492C216.16 125.626 211.925 129.714 206.064 129.515C194.96 129.138 193.803 116.498 196.357 108.23C196.357 108.229 214.306 96.881 214.316 96.8742Z" stroke="black" stroke-width="0.7" stroke-miterlimit="10" stroke-linecap="round" stroke-linejoin="round"/>
<path d="M208.055 88.2991L210.409 85.2196C210.409 85.2196 212.328 83.1313 210.409 80.8174C210.409 80.8174 208.096 79.1808 206.007 81.7206L204.486 83.752" fill="white"/>
<path d="M208.055 88.2991L210.409 85.2196C210.409 85.2196 212.328 83.1313 210.409 80.8174C210.409 80.8174 208.096 79.1808 206.007 81.7206L204.486 83.752" stroke="black" stroke-width="0.7" stroke-miterlimit="10" stroke-linecap="round" stroke-linejoin="round"/>
<path d="M213.852 95.7266C210.176 91.0592 206.565 86.3262 202.846 81.6965C201.151 79.5862 199.155 77.0644 196.244 79.1019C196.244 79.1019 194.212 80.2969 196.244 83.4638L200.081 88.7054C200.081 88.7054 197.147 87.6459 196.357 91.3708C196.357 91.3708 193.309 91.2577 192.293 94.4184C192.293 94.4184 187.439 94.5315 188.907 99.0465L198.614 111.011C198.614 111.011 205.847 115.075 211.543 109.77C211.543 109.77 218.367 106.066 213.852 95.7266Z" fill="white" stroke="black" stroke-width="0.7" stroke-miterlimit="10" stroke-linecap="round" stroke-linejoin="round"/>
<path d="M200.081 88.7058L203.468 92.726" stroke="black" stroke-width="0.7" stroke-miterlimit="10" stroke-linecap="round" stroke-linejoin="round"/>
<path d="M196.356 91.3711L200.081 96.1685" stroke="black" stroke-width="0.7" stroke-miterlimit="10" stroke-linecap="round" stroke-linejoin="round"/>
<path d="M192.293 94.4188L195.905 99.3293" stroke="black" stroke-width="0.7" stroke-miterlimit="10" stroke-linecap="round" stroke-linejoin="round"/>
<path d="M162.258 40.7272C162.872 33.6959 168.861 28.9135 168.861 28.9135" stroke="white" stroke-width="0.7" stroke-miterlimit="10" stroke-linecap="round" stroke-linejoin="round"/>
<path d="M197.18 35.4751C197.18 35.4751 199.813 39.9856 199.172 42.2155" stroke="white" stroke-width="0.7" stroke-miterlimit="10" stroke-linecap="round" stroke-linejoin="round"/>
</svg>
