<svg xmlns="http://www.w3.org/2000/svg" width="24" height="24" fill="none" viewBox="0 0 24 24">
    <path fill="#FEF051" d="M19.5 17L15 18.5 9.5 17 5 18.5l.5-2c1.5-.5 9 .5 11.5-10l2.5-1V17z"/>
    <path fill="#234EB6" d="M19.556 4l-.143.027-4.746 1.84L9.333 4 4.32 5.689c-.187.062-.32.222-.32.427v13.44c0 .248.196.444.444.444l.143-.027 4.746-1.84L14.667 20l5.013-1.689c.187-.062.32-.222.32-.427V4.444c0-.248-.196-.444-.444-.444zm-9.334 2.196l3.556 1.244v10.364l-3.556-1.244V6.196zm-4.444.88l2.666-.898v10.4l-2.666 1.03V7.077zm12.444 9.848l-2.666.898V7.432L18.222 6.4v10.524z"/>
</svg>
