<svg xmlns="http://www.w3.org/2000/svg" width="145" height="56" fill="none" viewBox="0 0 145 56">
    <rect width="135" height="39" x="5.5" y="8.5" fill="#60D170" stroke="#60D170" rx="4.5"/>
    <path fill="#fff" d="M47.822 18.98c0-1.066.78-1.768 1.807-1.768s1.82.702 1.82 1.768c0 1.079-.793 1.781-1.82 1.781-1.027 0-1.807-.702-1.807-1.781zm4.94 0c0-1.716-1.352-2.925-3.133-2.925-1.768 0-3.12 1.209-3.12 2.925 0 1.716 1.352 2.938 3.12 2.938 1.781 0 3.133-1.222 3.133-2.938zm-3.315 4.004h-1.352v3.796H56v-1.092h-6.552v-2.704zm6.084-4.238v-3.484h-1.339v8.606h1.34v-4.017h1.663v-1.105h-1.664zM67.763 20.8h-6.799v-3.419h6.708v-1.092h-8.047v5.59h8.138V20.8zm-9.438 3.588v1.105h10.647v-1.105H58.325zm17.926.13v-2.002h3.666v-1.079h-7.033v-1.638h6.773v-3.718h-8.112v1.079h6.786v1.573h-6.76v3.783h3.341v2.002h-4.628v1.105h10.634v-1.105h-4.667zm14.3-9.269v11.778h1.351V15.249H90.55zm-4.902.871c-1.742 0-3.016 1.612-3.016 4.134 0 2.548 1.274 4.147 3.016 4.147 1.755 0 3.03-1.599 3.03-4.147 0-2.522-1.275-4.134-3.03-4.134zm0 1.209c1.027 0 1.742 1.105 1.742 2.925 0 1.846-.715 2.951-1.742 2.951-1.014 0-1.729-1.105-1.729-2.951 0-1.82.715-2.925 1.73-2.925zM103.64 20.8h-6.799v-3.419h6.708v-1.092h-8.047v5.59h8.138V20.8zm-9.438 3.588v1.105h10.647v-1.105H94.202zm16.166-5.798c0-.975.611-1.599 1.456-1.599.858 0 1.482.624 1.482 1.599 0 .962-.624 1.599-1.482 1.599-.845 0-1.456-.637-1.456-1.599zm4.147 0c0-1.586-1.118-2.691-2.691-2.691-1.56 0-2.665 1.105-2.665 2.691 0 1.586 1.105 2.691 2.665 2.691 1.573 0 2.691-1.105 2.691-2.691zm3.185 7.189h-5.174v-1.313h5.174v1.313zm0-2.353h-5.174v-1.261H111.2v4.693h7.813v-4.693H117.7v1.261zm.039-8.151v2.574h-1.235v-2.366h-1.261v6.097h1.261v-2.639h1.235v2.717h1.274v-6.383h-1.274zM63.052 31.459h4.121v-1.092h-5.46v7.761h.962c2.119 0 3.705-.065 5.486-.39l-.143-1.105c-1.638.286-3.068.364-4.966.377v-5.551zm9.113 2.314h-1.833v-4.524h-1.339v11.765h1.339v-6.136h1.833v-1.105zm6.343-3.172c1.651 0 2.73.481 2.73 1.313s-1.079 1.313-2.73 1.313c-1.664 0-2.743-.481-2.743-1.313s1.079-1.313 2.743-1.313zm0 3.705c2.509 0 4.16-.923 4.16-2.392 0-1.469-1.651-2.392-4.16-2.392-2.522 0-4.16.923-4.16 2.392 0 1.469 1.638 2.392 4.16 2.392zm-2.652 3.003h-1.352v3.471h8.164v-1.092h-6.812v-2.379zm-2.665-2.21v1.092h4.732v2.223h1.365v-2.223h4.55v-1.092H73.191zm16.587-.715h-2.873v-1.755h2.873v1.755zm1.326-4.472h-1.326v1.664h-2.873v-1.664h-1.339v5.538h5.538v-5.538zm-2.912 7.865h6.227v-1.066h-7.566v4.134h7.787v-1.066h-6.448v-2.002zm6.136-5.759v-2.756h-1.339v6.864h1.339v-3.003h1.664v-1.105h-1.664zm3.457-1.521v1.092h4.186c-.234 2.704-1.69 4.771-4.771 6.253l.715 1.066c4.03-1.95 5.434-4.914 5.434-8.411h-5.564zm7.683-1.235v11.739h1.339V29.262h-1.339z"/>
    <g clip-path="url(#clip0)">
        <path fill="#60D170" d="M0 0H20.102V23H0z" transform="translate(15 17)"/>
        <path fill="url(#paint0_linear)" d="M27.894 24.01l-12.152-6.946c-.153-.089-.345-.084-.493.005-.153.089-.246.246-.246.424 0 0 .005.64.01 1.694l8.852 8.852 4.03-4.03z"/>
        <path fill="url(#paint1_linear)" d="M15.012 19.187c.014 3.803.059 13.035.079 17.63l8.778-8.777-8.857-8.853z"/>
        <path fill="url(#paint2_linear)" d="M34.849 27.985l-6.956-3.975-4.034 4.03 4.552 4.551 6.443-3.754c.153-.088.246-.25.246-.423 0-.178-.098-.34-.251-.429z"/>
        <path fill="url(#paint3_linear)" d="M15.085 36.818l.015 2.69c0 .177.094.34.247.423.152.089.34.089.492 0l12.577-7.335-4.552-4.552-8.779 8.774z"/>
    </g>
    <defs>
        <linearGradient id="paint0_linear" x1="15.003" x2="27.897" y1="22.522" y2="22.522" gradientUnits="userSpaceOnUse">
            <stop stop-color="#63BE6B"/>
            <stop offset=".506" stop-color="#5BBC6A"/>
            <stop offset="1" stop-color="#4AB96A"/>
        </linearGradient>
        <linearGradient id="paint1_linear" x1="15.009" x2="23.864" y1="28.005" y2="28.005" gradientUnits="userSpaceOnUse">
            <stop stop-color="#3EC6F2"/>
            <stop offset="1" stop-color="#45AFE3"/>
        </linearGradient>
        <linearGradient id="paint2_linear" x1="23.864" x2="35.099" y1="28.304" y2="28.304" gradientUnits="userSpaceOnUse">
            <stop stop-color="#FAA51A"/>
            <stop offset=".387" stop-color="#FAB716"/>
            <stop offset=".741" stop-color="#FAC412"/>
            <stop offset="1" stop-color="#FAC80F"/>
        </linearGradient>
        <linearGradient id="paint3_linear" x1="15.088" x2="28.415" y1="34.021" y2="34.021" gradientUnits="userSpaceOnUse">
            <stop stop-color="#EC3B50"/>
            <stop offset="1" stop-color="#E7515B"/>
        </linearGradient>
        <clipPath id="clip0">
            <path fill="#fff" d="M0 0H20.102V23H0z" transform="translate(15 17)"/>
        </clipPath>
    </defs>
</svg>
