<svg xmlns="http://www.w3.org/2000/svg" width="144" height="56" fill="none" viewBox="0 0 144 56">
    <rect width="136" height="40" x="4" y="8" fill="#FEF051" rx="5"/>
    <path fill="#666" d="M41.588 16.406h-1.34v7.67h.976c1.768 0 3.588-.13 5.577-.52l-.156-1.105c-1.781.364-3.471.494-5.057.507v-6.552zm9.126 3.432h-1.781v-4.576h-1.34v11.739h1.34v-6.058h1.78v-1.105zm2.729-1.027c0-1.027.78-1.677 1.846-1.677s1.833.65 1.833 1.677c0 1.027-.767 1.664-1.833 1.664-1.066 0-1.846-.637-1.846-1.664zm2.522 2.756c1.456-.26 2.457-1.313 2.457-2.756 0-1.664-1.326-2.821-3.133-2.821s-3.146 1.157-3.146 2.821c0 1.443 1.027 2.509 2.483 2.769v1.846c-1.053.026-2.067.026-2.951.026l.182 1.105c2.015 0 4.706-.013 7.163-.442l-.117-.988c-.936.13-1.937.208-2.938.247v-1.807zm6.695-1.573h-1.73v-4.732h-1.338v11.726h1.339v-5.876h1.729v-1.118zm4.999 2.418C69.633 22.1 71.22 21.19 72 19.864c.767 1.326 2.353 2.236 4.33 2.548l.507-1.079c-2.47-.338-4.083-1.677-4.16-3.25h3.665v-1.092h-3.678V15.47h-1.34v1.521h-3.692v1.092h3.68c-.078 1.573-1.69 2.912-4.16 3.25l.507 1.079zm5.004 2.08v-2.496h-1.338v2.496h-4.642v1.092h10.634v-1.092h-4.653zm7.683-6.747h3.028v-1.092h-4.341v7.553h.78c1.65 0 2.86-.052 4.276-.325l-.117-1.105c-1.209.247-2.274.312-3.626.325v-5.356zm7.032-2.496v4.641h-1.39v-4.394h-1.261v10.92h1.26v-5.434h1.392v6.006h1.273V15.249H87.38zm10.114 5.538c-1.794-.572-2.77-1.937-2.77-3.393v-.221h2.458v-1.079h-6.306v1.079h2.497v.234c0 1.599-1.027 3.107-2.873 3.744l.675 1.053c1.404-.481 2.392-1.482 2.912-2.73.508 1.092 1.444 1.937 2.757 2.353l.65-1.04zm-1.508 5.161c-1.638 0-2.587-.416-2.587-1.17 0-.767.948-1.17 2.587-1.17 1.638 0 2.587.403 2.587 1.17 0 .754-.95 1.17-2.587 1.17zm0-3.393c-2.418 0-3.913.819-3.913 2.223 0 1.391 1.495 2.223 3.913 2.223 2.418 0 3.913-.832 3.913-2.223 0-1.404-1.496-2.223-3.913-2.223zm3.782-4.433v-2.86h-1.339v7.02h1.34v-3.055h1.663v-1.105h-1.664zm-54.21 12.089h-1.351v1.937c0 2.197-1.144 4.459-2.977 5.356l.845 1.066c1.339-.689 2.3-2.054 2.82-3.718.508 1.573 1.457 2.86 2.783 3.523l.793-1.079c-1.794-.832-2.912-2.964-2.912-5.148v-1.937zm4.148-.975v3.861h-2.51v1.092h2.51v6.825h1.352V29.236h-1.352zm11.868.013v11.778h1.352V29.249h-1.352zm-7.683.975v8.008h5.642v-8.008h-1.34v2.99h-2.976v-2.99h-1.326zm1.326 4.056h2.977v2.873h-2.977V34.28zm20.188.715c-2.315-.416-4.2-2.223-4.2-4.095v-.884h-1.416v.884c0 1.859-1.886 3.666-4.2 4.095l.572 1.105c1.911-.39 3.563-1.612 4.33-3.224.766 1.612 2.417 2.834 4.328 3.224l.586-1.105zm-10.18 3.393v1.105h10.635v-1.105H65.222zm25.058-3.575c-2.314-.39-4.199-2.132-4.199-3.952v-.884h-1.416v.884c0 1.807-1.885 3.562-4.212 3.952l.572 1.118c1.91-.377 3.575-1.547 4.355-3.107.754 1.56 2.418 2.73 4.341 3.107l.56-1.118zm-4.25 3.627v-2.743h-1.34v2.743h-4.588v1.105h10.634V38.44H86.03zm6.46-7.696v1.092h3.288c-.182 2.366-1.248 4.29-3.783 5.759l.78.949c3.302-1.898 4.33-4.667 4.33-7.8H92.49zm8.28-1.482v4.589h-1.339v-4.277h-1.26v10.881h1.26v-5.512h1.339v6.058h1.274V29.262h-1.274z"/>
</svg>
