<svg xmlns="http://www.w3.org/2000/svg" width="24" height="24" fill="none" viewBox="0 0 24 24">
    <path fill="#FEF051" d="M6 18c10 0 9.833-9 8.5-13.5 6.8 2 6.167 8.167 5 11C15.5 22.3 8.833 20 6 18z"/>
    <path fill="#7E7E7E" d="M12.465 7.479v4.732l4.056 2.409-.676 1.14-4.732-2.873V7.48h1.352zm-5.578 9.634c1.437 1.408 3.141 2.112 5.113 2.112 1.972 0 3.662-.704 5.07-2.112 1.437-1.437 2.155-3.141 2.155-5.113 0-1.972-.718-3.662-2.155-5.07-1.408-1.437-3.098-2.155-5.07-2.155-1.972 0-3.676.718-5.113 2.155C5.48 8.338 4.775 10.028 4.775 12c0 1.972.704 3.676 2.112 5.113zM5.62 5.662C7.394 3.887 9.52 3 12 3s4.591.887 6.338 2.662C20.113 7.408 21 9.522 21 12c0 2.479-.887 4.606-2.662 6.38C16.591 20.127 14.478 21 12 21c-2.479 0-4.606-.873-6.38-2.62C3.873 16.606 3 14.48 3 12s.873-4.592 2.62-6.338z"/>
</svg>
